<?xml version="1.0" encoding="utf-8"?>
<!-- Generator: Adobe Illustrator 19.0.0, SVG Export Plug-In . SVG Version: 6.00 Build 0)  -->
<svg version="1.1" id="Layer_1" xmlns="http://www.w3.org/2000/svg" xmlns:xlink="http://www.w3.org/1999/xlink" x="0px" y="0px"
	 viewBox="-393 31 500 500" style="enable-background:new -393 31 500 500;" xml:space="preserve">
<style type="text/css">
	.st0{fill:none;}
	.st1{fill:#6C6D6D;}
	.st2{fill:#EA4335;}
	.st3{fill:#FBBC04;}
	.st4{fill:#0F9D58;}
	.st5{fill:#4285F4;}
</style>
<path class="st0" d="M-696.6,291.5h-11.9L-718,308c-0.6,1.1-0.6,2.4,0,3.4l9.5,16.5h11.9l-10.5-18.2L-696.6,291.5"/>
<path class="st0" d="M-696.6,291.5h-11.9L-718,308c-0.6,1.1-0.6,2.4,0,3.4l9.5,16.5h11.9l-10.5-18.2L-696.6,291.5"/>
<path class="st0" d="M-696.6,291.5h-11.9L-718,308c-0.6,1.1-0.6,2.4,0,3.4l9.5,16.5h11.9l-10.5-18.2L-696.6,291.5"/>
<g id="XMLID_43_">
	<path id="XMLID_45_" class="st1" d="M-120.9,266.3h8c8.1,0,13.2,5.4,13.2,13c0,7.6-5.1,13-13.2,13h-8V266.3z M-112.9,289.1
		c6,0,9.8-3.6,9.8-9.8c0-6.2-3.8-9.8-9.8-9.8h-4.6v19.7H-112.9z M-97.8,283.4c0-5.1,3.5-9.5,8.7-9.5c5.3,0,8.7,3.7,8.7,9.5
		c0,0.3,0,0.6,0,0.6h-14.1c0.2,3.8,2.9,5.8,5.7,5.8c2,0,3.9-0.8,4.9-3.1l3,1.2c-1.1,2.5-3.7,4.9-7.8,4.9
		C-94.2,292.9-97.8,288.8-97.8,283.4z M-89.2,277c-2.5,0-4.4,1.7-5.1,4.3h10.3C-84,279.7-85.4,277-89.2,277z M-79.2,274.5h3.6
		l5.2,13.8h0.1l5.3-13.8h3.6l-7.3,17.8H-72L-79.2,274.5z M-61.1,283.4c0-5.1,3.5-9.5,8.7-9.5c5.3,0,8.7,3.7,8.7,9.5
		c0,0.3,0,0.6,0,0.6h-14.1c0.2,3.8,2.9,5.8,5.7,5.8c2,0,3.9-0.8,4.9-3.1l3,1.2c-1.1,2.5-3.7,4.9-7.8,4.9
		C-57.5,292.9-61.1,288.8-61.1,283.4z M-52.4,277c-2.5,0-4.4,1.7-5.1,4.3h10.3C-47.3,279.7-48.6,277-52.4,277z M-40.9,292.3v-26.1
		h3.4v26.1H-40.9z M-16.5,283.4c0,5.4-3.8,9.5-9.2,9.5s-9.2-4.1-9.2-9.5c0-5.4,3.8-9.5,9.2-9.5S-16.5,278-16.5,283.4z M-19.9,283.4
		c0-4.1-2.8-6.4-5.8-6.4s-5.8,2.4-5.8,6.4c0,4.1,2.8,6.4,5.8,6.4S-19.9,287.5-19.9,283.4z M-10.6,289.8h-0.1l0.1,2.5v7.9H-14v-25.7
		h3.2v2.5h0.1c1-1.6,3.2-3.1,6.1-3.1c4.5,0,8.5,4,8.5,9.5c0,5.5-4,9.5-8.5,9.5C-7.4,292.9-9.6,291.5-10.6,289.8z M0.6,283.4
		c0-4-2.7-6.4-5.7-6.4c-3,0-5.7,2.4-5.7,6.4c0,4.1,2.7,6.4,5.7,6.4C-2.1,289.8,0.6,287.4,0.6,283.4z M5.8,283.4
		c0-5.1,3.5-9.5,8.7-9.5c5.3,0,8.7,3.7,8.7,9.5c0,0.3,0,0.6,0,0.6H9.1c0.2,3.8,2.9,5.8,5.7,5.8c2,0,3.9-0.8,4.9-3.1l3,1.2
		c-1.1,2.5-3.7,4.9-7.8,4.9C9.4,292.9,5.8,288.8,5.8,283.4z M14.4,277c-2.5,0-4.4,1.7-5.1,4.3h10.3C19.6,279.7,18.3,277,14.4,277z
		 M26,292.3v-17.8h3.2v2.9h0.1c0.7-2,3.3-3.4,5.2-3.4c1.1,0,1.8,0.1,2.5,0.4l-1.3,3.1c-0.5-0.2-1.1-0.3-1.8-0.3
		c-2.3,0-4.6,1.9-4.6,5.2v9.8H26z M38,287.8l3-1.2c0.9,2.3,2.7,3.4,4.8,3.4c2.1,0,3.6-1,3.6-2.5c0-0.9-0.5-1.9-2.4-2.4l-3.6-0.9
		c-1.6-0.4-4.8-1.8-4.8-5c0-3.2,3.4-5.3,7.1-5.3c3.1,0,5.8,1.4,6.9,4.2l-2.9,1.2c-0.7-1.7-2.3-2.4-4.1-2.4c-1.9,0-3.5,0.8-3.5,2.3
		c0,1.1,0.9,1.7,2.4,2.1l3.5,0.8c3.5,0.8,4.9,3,4.9,5.2c0,3.2-2.8,5.6-7,5.6C41.5,292.9,39.1,290.4,38,287.8z M-233,292.9
		c4.4,0,7.8-1.5,10.4-4.2c2.7-2.7,3.5-6.5,3.5-9.5c0-0.9-0.1-1.8-0.2-2.5H-233v4.1h9.8c-0.3,2.3-1.1,4-2.2,5.1c-1.4,1.4-3.6,3-7.5,3
		c-6,0-10.7-4.8-10.7-10.9c0-6,4.7-10.9,10.7-10.9c3.2,0,5.6,1.3,7.4,2.9l2.9-2.9c-2.4-2.3-5.7-4.1-10.2-4.1
		c-8.2,0-15.1,6.7-15.1,14.9C-248.1,286.2-241.2,292.9-233,292.9z M-207.9,273.7c-5.3,0-9.6,4-9.6,9.6c0,5.5,4.3,9.6,9.6,9.6
		c5.3,0,9.6-4.1,9.6-9.6C-198.3,277.7-202.6,273.7-207.9,273.7z M-207.9,289.1c-2.9,0-5.4-2.4-5.4-5.8c0-3.5,2.5-5.8,5.4-5.8
		s5.4,2.4,5.4,5.8C-202.5,286.7-205,289.1-207.9,289.1z M-186.9,273.7c-5.3,0-9.6,4-9.6,9.6c0,5.5,4.3,9.6,9.6,9.6
		c5.3,0,9.6-4.1,9.6-9.6C-177.2,277.7-181.5,273.7-186.9,273.7z M-186.9,289.1c-2.9,0-5.4-2.4-5.4-5.8c0-3.5,2.5-5.8,5.4-5.8
		s5.4,2.4,5.4,5.8C-181.4,286.7-183.9,289.1-186.9,289.1z M-161,274.3v1.6h-0.1c-0.9-1.1-2.8-2.1-5.1-2.1c-4.8,0-9.2,4.2-9.2,9.6
		c0,5.4,4.4,9.6,9.2,9.6c2.3,0,4.1-1,5.1-2.2h0.1v1.4c0,3.7-2,5.6-5.1,5.6c-2.6,0-4.2-1.9-4.8-3.4l-3.7,1.5c1.1,2.5,3.9,5.7,8.5,5.7
		c5,0,9.1-2.9,9.1-10v-17.3H-161z M-165.9,289.1c-2.9,0-5.4-2.4-5.4-5.8c0-3.4,2.4-5.9,5.4-5.9c2.9,0,5.1,2.5,5.1,5.9
		C-160.7,286.7-163,289.1-165.9,289.1z M-149.9,264.1h-4.2v28.3h4.2V264.1z M-138.3,289.1c-2.1,0-3.7-1-4.7-2.9l12.9-5.3l-0.4-1.1
		c-0.8-2.1-3.2-6.1-8.2-6.1c-5,0-9.1,3.9-9.1,9.6c0,5.4,4.1,9.6,9.5,9.6c4.4,0,7-2.7,8-4.3l-3.3-2.2
		C-134.7,288.1-136.1,289.1-138.3,289.1z M-138.6,277.4c1.7,0,3.1,0.8,3.6,2l-8.6,3.6C-143.8,279.3-140.8,277.4-138.6,277.4z"/>
	<g id="XMLID_2_">
		<path id="XMLID_104_" class="st2" d="M-330.9,286.9l22.5-13c2-1.2,2.7-3.7,1.5-5.7l-1.4-2.5c-1.2-2-3.7-2.7-5.7-1.5l-22.5,13
			c-2,1.2-2.7,3.7-1.5,5.7l1.4,2.5C-335.5,287.4-332.9,288.1-330.9,286.9z"/>
		<path id="XMLID_106_" class="st3" d="M-291.4,298.6l22.5-13c2-1.2,2.7-3.7,1.5-5.7l-1.4-2.5c-1.2-2-3.7-2.7-5.7-1.5l-22.5,13
			c-2,1.2-2.7,3.7-1.5,5.7l1.4,2.5C-296,299.1-293.4,299.8-291.4,298.6z"/>
		<path id="XMLID_105_" class="st4" d="M-274.4,286.9l-22.5-13c-2-1.2-2.7-3.7-1.5-5.7l1.4-2.5c1.2-2,3.7-2.7,5.7-1.5l22.5,13
			c2,1.2,2.7,3.7,1.5,5.7l-1.4,2.5C-269.8,287.4-272.4,288.1-274.4,286.9z"/>
		<path id="XMLID_42_" class="st5" d="M-314.2,298.6l-22.5-13c-2-1.2-2.7-3.7-1.5-5.7l1.4-2.5c1.2-2,3.7-2.7,5.7-1.5l22.5,13
			c2,1.2,2.7,3.7,1.5,5.7l-1.4,2.5C-309.7,299.1-312.2,299.8-314.2,298.6z"/>
	</g>
</g>
</svg>
